<svg width="48" height="64" viewBox="0 0 48 64" fill="none" xmlns="http://www.w3.org/2000/svg">
<path d="M46 39.5C46 51.9264 36.1503 62 24 62C11.8497 62 2 51.9264 2 39.5C2 27.0736 11.8497 2 24 2C36.1503 2 46 27.0736 46 39.5Z" fill="#F2EB76"/>
<path fill-rule="evenodd" clip-rule="evenodd" d="M48 39.5C48 52.9884 37.297 64 24 64C10.703 64 0 52.9884 0 39.5C0 32.8947 2.57642 23.2081 6.66126 15.1829C8.71201 11.1539 11.2018 7.42438 14.0464 4.67407C16.8799 1.93453 20.246 0 24 0C27.754 0 31.1201 1.93453 33.9536 4.67407C36.7982 7.42438 39.288 11.1539 41.3387 15.1829C45.4236 23.2081 48 32.8947 48 39.5ZM24 62C36.1503 62 46 51.9264 46 39.5C46 27.0736 36.1503 2 24 2C11.8497 2 2 27.0736 2 39.5C2 51.9264 11.8497 62 24 62Z" fill="#538642"/>
<path fill-rule="evenodd" clip-rule="evenodd" d="M24 62C36.1503 62 46 51.9264 46 39.5C46 27.0736 36.1503 2 24 2C11.8497 2 2 27.0736 2 39.5C2 51.9264 11.8497 62 24 62ZM24 60C35.0457 60 44 50.7659 44 39.375C44 27.9841 35.0457 5 24 5C12.9543 5 4 27.9841 4 39.375C4 50.7659 12.9543 60 24 60Z" fill="#D9DE2E"/>
<path d="M39.4623 51.3309C38.6892 52.1767 37.3769 52.2356 36.5311 51.4625C35.6854 50.6894 35.6265 49.3771 36.3995 48.5314C37.1726 47.6856 38.4849 47.6267 39.3307 48.3998C40.1764 49.1728 40.2354 50.4852 39.4623 51.3309Z" fill="#C4CB29"/>
<path d="M31.4623 58.3309C30.6892 59.1767 29.3769 59.2356 28.5311 58.4625C27.6854 57.6894 27.6265 56.3771 28.3995 55.5314C29.1726 54.6856 30.4849 54.6267 31.3307 55.3998C32.1764 56.1728 32.2354 57.4852 31.4623 58.3309Z" fill="#C4CB29"/>
<path d="M8.46229 47.3309C7.68922 48.1767 6.3769 48.2356 5.53115 47.4625C4.68539 46.6894 4.62647 45.3771 5.39955 44.5314C6.17262 43.6856 7.48493 43.6267 8.33069 44.3998C9.17644 45.1728 9.23536 46.4852 8.46229 47.3309Z" fill="#C4CB29"/>
<path d="M36.1297 56.0374C35.5875 56.6305 34.6671 56.6719 34.074 56.1297C33.4808 55.5875 33.4395 54.6671 33.9817 54.074C34.5239 53.4808 35.4442 53.4395 36.0374 53.9817C36.6305 54.5239 36.6718 55.4442 36.1297 56.0374Z" fill="#C4CB29"/>
<path d="M26.1297 60.0374C25.5875 60.6305 24.6671 60.6719 24.074 60.1297C23.4808 59.5875 23.4395 58.6671 23.9817 58.074C24.5239 57.4808 25.4442 57.4395 26.0374 57.9817C26.6305 58.5239 26.6718 59.4442 26.1297 60.0374Z" fill="#C4CB29"/>
<path d="M10.1297 51.0374C9.58749 51.6305 8.66713 51.6719 8.07397 51.1297C7.48082 50.5875 7.4395 49.6671 7.98168 49.074C8.52386 48.4808 9.44422 48.4395 10.0374 48.9817C10.6305 49.5239 10.6718 50.4442 10.1297 51.0374Z" fill="#C4CB29"/>
<path d="M8.12967 41.0374C7.58749 41.6305 6.66713 41.6719 6.07397 41.1297C5.48082 40.5875 5.4395 39.6671 5.98168 39.074C6.52386 38.4808 7.44422 38.4395 8.03737 38.9817C8.63052 39.5239 8.67185 40.4442 8.12967 41.0374Z" fill="#C4CB29"/>
<path d="M43.1297 47.0374C42.5875 47.6305 41.6671 47.6719 41.074 47.1297C40.4808 46.5875 40.4395 45.6671 40.9817 45.074C41.5239 44.4808 42.4442 44.4395 43.0374 44.9817C43.6305 45.5239 43.6718 46.4442 43.1297 47.0374Z" fill="#C4CB29"/>
<path d="M38 40C38 47.732 31.732 54 24 54C16.268 54 10 47.732 10 40C10 32.268 16.268 26 24 26C31.732 26 38 32.268 38 40Z" fill="#BAC73A"/>
<path d="M33 40C33 44.9706 28.9706 49 24 49C19.0294 49 15 44.9706 15 40C15 35.0294 19.0294 31 24 31C28.9706 31 33 35.0294 33 40Z" fill="#B6472C"/>
<path fill-rule="evenodd" clip-rule="evenodd" d="M35 40C35 46.0751 30.0751 51 24 51C17.9249 51 13 46.0751 13 40C13 33.9249 17.9249 29 24 29C30.0751 29 35 33.9249 35 40ZM24 49C28.9706 49 33 44.9706 33 40C33 35.0294 28.9706 31 24 31C19.0294 31 15 35.0294 15 40C15 44.9706 19.0294 49 24 49Z" fill="#662513"/>
<path fill-rule="evenodd" clip-rule="evenodd" d="M23 46C27.9706 46 32 41.9705 32 37C32 36.5572 31.968 36.1219 31.9063 35.6963C32.6037 36.9748 33 38.4411 33 40C33 44.9705 28.9706 49 24 49C19.4722 49 15.7253 45.6564 15.0938 41.3036C16.62 44.1016 19.5883 46 23 46Z" fill="#A43E25"/>
<path d="M22 37C22 38.1046 21.1046 39 20 39C18.8954 39 18 38.1046 18 37C18 35.8954 18.8954 35 20 35C21.1046 35 22 35.8954 22 37Z" fill="#F5A05F"/>
<path d="M23.0672 8.22101C24.6413 9.91778 23.8542 13.2075 21.3091 15.5688C18.7639 17.9301 15.4245 18.4688 13.8503 16.772C12.2761 15.0752 13.0633 11.7855 15.6084 9.42422C18.1536 7.06293 21.493 6.52424 23.0672 8.22101Z" fill="#FFFAA3"/>
<path fill-rule="evenodd" clip-rule="evenodd" d="M18.4467 14.2619C19.3872 13.7575 19.7697 12.5958 19.2995 11.6269C18.8174 10.6331 17.6209 10.2184 16.6271 10.7006C16.3322 10.8437 16.0021 11.0196 15.7131 11.255C15.3425 11.5566 15.1087 11.8958 14.9546 12.2475C14.9078 12.3545 14.8617 12.4826 14.8598 12.4878L14.8598 12.4879C14.8587 12.4909 14.8577 12.4935 14.8568 12.4957C14.8466 12.5114 14.8242 12.5435 14.7826 12.5942C14.0824 13.4484 14.2072 14.7086 15.0615 15.4088C15.9158 16.1091 17.1759 15.9842 17.8761 15.13C18.1284 14.8222 18.3101 14.5394 18.4467 14.2619ZM14.8639 12.4842C14.8639 12.4842 14.8632 12.4857 14.8613 12.4887C14.8629 12.4857 14.8638 12.4842 14.8639 12.4842Z" fill="white"/>
</svg>
