<svg width="75" height="65" viewBox="0 0 75 65" fill="none" xmlns="http://www.w3.org/2000/svg">
<path d="M67.0421 32.3648C67.0421 32.3648 62.1454 39.2987 57.3769 40.6669C51.6295 42.3159 46.3275 36.7658 46.3275 36.7658C46.3275 36.7658 49.566 30.8542 55.7285 29.5449C60.4688 28.5377 67.0421 32.3648 67.0421 32.3648Z" fill="#64AC1D"/>
<path fill-rule="evenodd" clip-rule="evenodd" d="M68.6758 33.5184L67.0421 32.3647L68.0484 30.6363C68.5331 30.9185 68.877 31.3912 68.9963 31.9393C69.1156 32.4873 68.9993 33.0602 68.6758 33.5184ZM65.2377 31.4446C66.3435 31.958 67.0421 32.3647 67.0421 32.3647C67.0421 32.3647 66.5806 33.0182 65.8029 33.9636C64.0476 36.0976 60.6814 39.7187 57.3768 40.6668C51.6294 42.3158 46.3274 36.7657 46.3274 36.7657C46.3274 36.7657 49.5659 30.8541 55.7284 29.5448C58.9235 28.866 62.9512 30.3833 65.2377 31.4446ZM46.3274 36.7657C44.5734 35.8048 44.5737 35.8042 44.5741 35.8036L44.5749 35.8021L44.5767 35.7989L44.5812 35.7907L44.5938 35.7681C44.6039 35.7501 44.6173 35.7266 44.634 35.6978C44.6672 35.6402 44.7137 35.5616 44.7732 35.4644C44.8921 35.2703 45.0639 35.0014 45.2881 34.6792C45.7352 34.0367 46.3984 33.1711 47.276 32.2593C49.0151 30.4523 51.7019 28.3556 55.3127 27.5885C58.2684 26.9605 61.5536 27.8454 63.8595 28.7023C65.0591 29.1481 66.0948 29.6256 66.831 29.9914C67.2002 30.1749 67.4972 30.3318 67.7051 30.4448C67.8092 30.5013 67.8912 30.547 67.949 30.5796C67.9779 30.5959 68.0009 30.6089 68.0175 30.6185L68.0377 30.6301L68.0443 30.6339L68.0484 30.6363C68.0488 30.6365 68.0484 30.6363 67.0421 32.3647C68.6758 33.5184 68.676 33.518 68.6758 33.5184L68.6732 33.522L68.6689 33.5281L68.6548 33.5479C68.6431 33.5643 68.6266 33.5872 68.6056 33.6161C68.5637 33.674 68.5035 33.7564 68.4263 33.86C68.2721 34.0671 68.0494 34.3599 67.7682 34.7138C67.2074 35.4195 66.406 36.3775 65.4435 37.3845C63.5965 39.317 60.8646 41.7468 57.9284 42.5893C54.2978 43.6309 50.945 42.3662 48.696 41.0662C47.5473 40.4023 46.6084 39.6856 45.9569 39.1365C45.6294 38.8606 45.37 38.6231 45.1883 38.4503C45.0973 38.3638 45.0255 38.2932 44.974 38.2417C44.9482 38.2159 44.9275 38.1949 44.912 38.179L44.8927 38.1591L44.886 38.1522L44.8834 38.1495L44.8823 38.1483C44.8817 38.1478 44.8813 38.1473 46.3274 36.7657ZM44.5734 35.8048L46.3274 36.7657L44.8813 38.1473C44.2792 37.517 44.1546 36.5693 44.5734 35.8048Z" fill="#156319"/>
<path d="M64.4633 45.8476C64.4633 45.8476 55.3948 49.7768 49.8246 48.2492C43.111 46.4081 41.2003 37.6783 41.2003 37.6783C41.2003 37.6783 48.0008 33.7614 54.9214 36.1917C60.2449 38.0612 64.4633 45.8476 64.4633 45.8476Z" fill="#7CD623"/>
<path fill-rule="evenodd" clip-rule="evenodd" d="M65.2587 47.6827L64.4635 45.8475L66.222 44.8948C66.4892 45.388 66.537 45.9706 66.3538 46.5007C66.1706 47.0309 65.7733 47.4597 65.2587 47.6827ZM63.4114 44.1194C64.0849 45.1486 64.4635 45.8475 64.4635 45.8475C64.4635 45.8475 63.7409 46.1606 62.5782 46.5757C59.6223 47.631 53.8226 49.3455 49.8248 48.2491C43.1113 46.408 41.2006 37.6782 41.2006 37.6782C41.2006 37.6782 48.001 33.7613 54.9216 36.1916C58.6503 37.501 61.8368 41.7131 63.4114 44.1194ZM41.2006 37.6782C40.2023 35.9451 40.203 35.9447 40.2036 35.9444L40.2051 35.9435L40.2084 35.9416L40.217 35.9367L40.2417 35.9228C40.2615 35.9116 40.288 35.897 40.3208 35.8791C40.3864 35.8433 40.4778 35.7945 40.5932 35.7352C40.8239 35.6168 41.1517 35.4563 41.5635 35.2745C42.3848 34.9119 43.5519 34.4593 44.9566 34.0894C47.7439 33.3555 51.6132 32.91 55.5843 34.3046C58.8108 35.4377 61.4928 38.2429 63.2591 40.4819C64.1731 41.6404 64.9071 42.7326 65.413 43.535C65.6667 43.9374 65.8649 44.2698 66.0015 44.505C66.0698 44.6227 66.1228 44.7163 66.1598 44.7823C66.1783 44.8153 66.1928 44.8415 66.2032 44.8604L66.2157 44.8832L66.2197 44.8904L66.222 44.8948C66.2223 44.8952 66.222 44.8948 64.4635 45.8475C65.2587 47.6827 65.259 47.6825 65.2587 47.6827L65.2544 47.6845L65.2467 47.6878L65.2217 47.6985C65.2007 47.7075 65.1711 47.72 65.1333 47.7358C65.0578 47.7675 64.9495 47.8123 64.8114 47.868C64.5354 47.9794 64.1399 48.1345 63.6495 48.3148C62.6712 48.6744 61.304 49.1382 59.749 49.5534C56.7483 50.3548 52.6347 51.0935 49.2959 50.1779C45.1797 49.0491 42.67 45.852 41.2396 43.2314C40.511 41.8967 40.0187 40.6342 39.7077 39.7067C39.5516 39.2409 39.4393 38.8541 39.3648 38.5777C39.3275 38.4394 39.2995 38.3284 39.2801 38.2486C39.2704 38.2086 39.2629 38.1764 39.2573 38.1525L39.2506 38.1228L39.2483 38.1127L39.2475 38.1088L39.2471 38.1072C39.247 38.1065 39.2468 38.1058 41.2006 37.6782ZM40.2023 35.9451L41.2006 37.6782L39.2468 38.1058C39.0604 37.2543 39.447 36.3801 40.2023 35.9451Z" fill="#156319"/>
<path d="M49.5208 46.6992C53.7857 48.1969 61.4779 45.5547 61.4779 45.5547C53.666 40.263 45.943 39.9246 43.1918 40.0203C43.1918 40.0203 45.256 45.2015 49.5208 46.6992Z" fill="#6FC21C"/>
<path d="M42.7755 45.7099C57.5002 36.9999 55.2001 21.4134 48.5794 9.93046L6.99609 33.906C13.6168 45.3889 27.0705 54.9999 42.7755 45.7099Z" fill="#A6682F"/>
<path fill-rule="evenodd" clip-rule="evenodd" d="M47.5806 8.19784C48.5375 7.64612 49.7605 7.97458 50.3122 8.93149C53.7447 14.8848 56.1513 22.0506 55.6775 28.9961C55.1955 36.0628 51.7327 42.7353 43.794 47.4313C35.3923 52.4011 27.4274 52.366 20.6816 49.4318C14.0322 46.5395 8.72476 40.908 5.26363 34.905C4.71191 33.9481 5.04038 32.7251 5.99729 32.1734L47.5806 8.19784ZM8.0403 35.6127C14.9683 46.303 27.8561 54.5353 42.7757 45.7099C56.7629 37.4361 55.3879 22.9573 49.5402 11.6852C49.2319 11.0909 48.9112 10.5056 48.5796 9.93048L6.99627 33.906C7.32738 34.4803 7.67558 35.0499 8.0403 35.6127Z" fill="#6C3211"/>
<path fill-rule="evenodd" clip-rule="evenodd" d="M48.5794 9.93042C55.2001 21.4133 57.5002 36.9998 42.7755 45.7099C35.3901 50.0786 28.5025 50.2674 22.5892 48.0474C26.6087 48.6129 31.0315 47.831 35.6895 45.0757C48.0954 37.7372 46.1575 24.6051 40.5794 14.9304L7.16503 34.196C7.10823 34.0995 7.05192 34.0028 6.99609 33.906L48.5794 9.93042Z" fill="#925824"/>
<path d="M49.6018 32.0032C49.1536 33.0128 47.9719 33.4679 46.9623 33.0197C45.9527 32.5715 45.4977 31.3898 45.9458 30.3802C46.394 29.3707 47.5757 28.9156 48.5853 29.3637C49.5949 29.8119 50.0499 30.9936 49.6018 32.0032Z" fill="#77461A"/>
<path d="M48.3252 25.6566C47.9891 26.4138 47.1028 26.7551 46.3456 26.4189C45.5885 26.0828 45.2471 25.1965 45.5833 24.4393C45.9194 23.6822 46.8057 23.3408 47.5629 23.677C48.32 24.0131 48.6614 24.8994 48.3252 25.6566Z" fill="#77461A"/>
<path d="M46.7614 38.4012C46.3133 39.4107 45.1315 39.8658 44.122 39.4176C43.1124 38.9695 42.6573 37.7877 43.1055 36.7782C43.5537 35.7686 44.7354 35.3135 45.745 35.7617C46.7545 36.2099 47.2096 37.3916 46.7614 38.4012Z" fill="#77461A"/>
<path d="M42.9006 32.3106C42.4524 33.3201 41.2707 33.7752 40.2611 33.3271C39.2516 32.8789 38.7965 31.6971 39.2447 30.6876C39.6928 29.678 40.8746 29.2229 41.8841 29.6711C42.8937 30.1193 43.3488 31.301 42.9006 32.3106Z" fill="#77461A"/>
<path d="M40.3506 42.5882C40.0145 43.3454 39.1282 43.6867 38.371 43.3506C37.6138 43.0144 37.2725 42.1281 37.6087 41.371C37.9448 40.6138 38.8311 40.2725 39.5883 40.6086C40.3454 40.9448 40.6868 41.8311 40.3506 42.5882Z" fill="#77461A"/>
<path d="M48.5793 9.9306C50.7861 13.7582 43.2664 22.2283 31.7835 28.8489C20.3006 35.4696 9.20281 37.7338 6.99592 33.9061C4.78904 30.0785 12.3087 21.6085 23.7917 14.9878C35.2746 8.36715 46.3724 6.10296 48.5793 9.9306Z" fill="#FFEED6"/>
<path fill-rule="evenodd" clip-rule="evenodd" d="M46.8109 19.67C43.5938 23.2936 38.6585 27.1935 32.7827 30.5813C26.9068 33.9692 21.059 36.2864 16.3112 37.255C13.9481 37.7372 11.7434 37.9092 9.89756 37.6407C8.08017 37.3764 6.25247 36.6202 5.26346 34.9049C4.27445 33.1896 4.53575 31.2289 5.21755 29.5237C5.91 27.7918 7.16344 25.9699 8.76467 24.1663C11.9817 20.5427 16.917 16.6428 22.7929 13.2549C28.6687 9.86712 34.5165 7.5499 39.2643 6.58123C41.6275 6.0991 43.8322 5.92712 45.678 6.19556C47.4954 6.45988 49.3231 7.21604 50.3121 8.93139C51.3011 10.6467 51.0398 12.6073 50.358 14.3126C49.6655 16.0445 48.4121 17.8664 46.8109 19.67ZM31.7837 28.8487C43.2666 22.228 50.7863 13.758 48.5794 9.93037C46.3725 6.10273 35.2748 8.36692 23.7918 14.9876C12.3089 21.6082 4.78921 30.0783 6.9961 33.9059C9.20299 37.7336 20.3008 35.4694 31.7837 28.8487Z" fill="#8C4922"/>
<path fill-rule="evenodd" clip-rule="evenodd" d="M43.0004 10.4999C43.0004 11.6045 42.105 12.4999 41.0004 12.4999C40.7058 12.4999 40.5532 12.5315 40.3483 12.5779C40.3279 12.5825 40.3063 12.5875 40.2834 12.5928C40.0174 12.6542 39.5816 12.7547 39.0004 12.7547C37.8958 12.7547 37.0004 11.8592 37.0004 10.7547C37.0004 9.65009 37.8958 8.75466 39.0004 8.75466C39.1192 8.75466 39.1594 8.74586 39.465 8.67668C39.8226 8.59571 40.295 8.49995 41.0004 8.49995C42.105 8.49995 43.0004 9.39538 43.0004 10.4999Z" fill="white"/>
<path d="M45.2241 13.5179C46.7109 16.0967 40.3614 22.543 31.042 27.9162C21.7227 33.2894 12.9626 35.5548 11.4758 32.9761C9.98898 30.3973 16.3385 23.951 25.6578 18.5778C34.9772 13.2046 43.7373 10.9392 45.2241 13.5179Z" fill="#E7D2B4"/>
<path fill-rule="evenodd" clip-rule="evenodd" d="M22.6054 32.0171C18.6134 31.8636 15.3575 30.3981 13.743 27.6428C11.7118 29.8991 10.8112 31.8239 11.4757 32.9763C12.4938 34.7421 16.9223 34.2365 22.6054 32.0171Z" fill="#DDC5A2"/>
<path fill-rule="evenodd" clip-rule="evenodd" d="M16.0622 39.3338C16.9353 38.6572 18.1916 38.8166 18.8681 39.6897C19.0485 39.9226 19.167 40.0239 19.3292 40.1574C19.3453 40.1707 19.3625 40.1847 19.3807 40.1996C19.5921 40.3723 19.9385 40.6552 20.2945 41.1146C20.971 41.9878 20.8116 43.244 19.9385 43.9206C19.0654 44.5971 17.8091 44.4378 17.1326 43.5646C17.0598 43.4707 17.0282 43.4443 16.7864 43.2451C16.5033 43.012 16.1383 42.6973 15.7062 42.1397C15.0297 41.2666 15.189 40.0103 16.0622 39.3338Z" fill="#CF843E"/>
</svg>
