<svg width="44" height="73" viewBox="0 0 44 73" fill="none" xmlns="http://www.w3.org/2000/svg">
<path d="M8.70199 34.8576C5.28978 41.0293 2 41.4999 2 50.7566C2 61.9107 10.9543 70.1395 22 70.1395C33.0457 70.1395 42 62.7803 42 51.6262C42 42.3695 38.3572 41.4999 34.6324 35.1541C30.5038 28.1203 33.2661 17.9656 21.5994 17.9656C8.93273 17.9656 12.7178 27.594 8.70199 34.8576Z" fill="#A4D31F"/>
<path fill-rule="evenodd" clip-rule="evenodd" d="M4.6122 37.4479C5.37755 36.4219 6.16207 35.3181 6.95169 33.8899C7.80713 32.3426 8.27545 30.6178 8.6736 28.7392C8.75979 28.3325 8.84421 27.9082 8.93061 27.4738C9.22164 26.0109 9.5352 24.4347 10.0152 23.0378C10.6678 21.1384 11.711 19.2737 13.6778 17.9315C15.6162 16.6088 18.2004 15.9656 21.5994 15.9656C24.8046 15.9656 27.2752 16.6655 29.1608 18.0501C31.0392 19.4293 32.1001 21.3158 32.8149 23.2189C33.3443 24.6282 33.7347 26.206 34.0996 27.6811C34.2113 28.1324 34.3205 28.5741 34.4307 28.9985C34.9251 30.903 35.4717 32.633 36.3573 34.1417C37.2246 35.6194 38.0905 36.7854 38.9369 37.8795C39.0703 38.052 39.2053 38.2251 39.3411 38.3993C40.0454 39.3027 40.7707 40.2331 41.4014 41.2266C43.0093 43.7589 44 46.674 44 51.6262C44 64.0906 33.9327 72.1395 22 72.1395C9.94029 72.1395 0 63.1037 0 50.7566C0 45.8429 0.885041 43.0317 2.3643 40.6082C2.92906 39.683 3.58086 38.8181 4.20769 37.9864C4.34409 37.8054 4.47931 37.626 4.6122 37.4479ZM5.78356 39.2189C6.6907 38.0144 7.69097 36.6862 8.70199 34.8576C9.94885 32.6023 10.4437 30.1191 10.9124 27.7669C11.9534 22.5432 12.8656 17.9656 21.5994 17.9656C29.6326 17.9656 30.8248 22.7801 32.1361 28.0751C32.7292 30.4702 33.3466 32.9635 34.6324 35.1541C35.7177 37.003 36.796 38.3871 37.7793 39.6491C40.1707 42.7186 42 45.0666 42 51.6262C42 62.7803 33.0457 70.1395 22 70.1395C10.9543 70.1395 2 61.9107 2 50.7566C2 44.2426 3.6291 42.0795 5.78356 39.2189Z" fill="#5B7C14"/>
<path fill-rule="evenodd" clip-rule="evenodd" d="M7.82764 64.6023C9.51926 65.3899 11.3538 65.9664 13.2978 66.2955C24.1885 68.1391 34.2456 62.3777 36.1073 51.38C37.2022 44.9125 35.7904 42.2921 33.9449 38.8666C33.186 37.4581 32.3539 35.9135 31.5924 33.9094C30.6903 31.5348 30.4977 28.9734 30.3126 26.513C30.1769 24.7074 30.0452 22.9563 29.6402 21.3733C30.9286 23.2003 31.5191 25.5846 32.1359 28.0753C32.729 30.4703 33.3464 32.9637 34.6322 35.1543C35.7175 37.0032 36.7958 38.3872 37.7791 39.6493C40.1705 42.7188 41.9998 45.0667 41.9998 51.6263C41.9998 62.7805 33.0455 70.1396 21.9998 70.1396C16.4617 70.1396 11.4493 68.071 7.82764 64.6023Z" fill="#92BC1B"/>
<path d="M14.2609 36.8881C16.4338 38.1356 16.526 42.0545 14.4669 45.6411C12.4077 49.2278 8.97693 51.124 6.80402 49.8765C4.63112 48.629 4.53891 44.7101 6.59806 41.1235C8.65722 37.5369 12.088 35.6406 14.2609 36.8881Z" fill="#BBEB35"/>
<path d="M18.9172 20.1066C19.6992 20.8088 19.3936 22.4243 18.2346 23.7151C17.0756 25.0059 15.5021 25.483 14.7201 24.7809C13.9381 24.0787 14.2437 22.4631 15.4027 21.1724C16.5617 19.8816 18.1352 19.4044 18.9172 20.1066Z" fill="#BBEB35"/>
<path fill-rule="evenodd" clip-rule="evenodd" d="M10.2402 42.093C11.122 42.7582 11.2977 44.0122 10.6325 44.8941C10.3053 45.3278 10.1312 45.6877 10.0472 45.9735C9.73565 47.0332 8.62401 47.6397 7.56429 47.3281C6.50458 47.0166 5.89808 45.9049 6.20965 44.8452C6.45763 44.0017 6.88852 43.2151 7.43914 42.4852C8.10432 41.6034 9.35842 41.4278 10.2402 42.093Z" fill="white"/>
<path d="M35.9694 6.19183C35.9694 6.19183 32.6659 12.0121 29.1402 13.8707C25.6145 15.7293 21.0737 14.044 21.0737 14.044C21.0737 14.044 22.2493 9.3454 25.775 7.48684C29.3007 5.62829 35.9694 6.19183 35.9694 6.19183Z" fill="#87D623"/>
<path fill-rule="evenodd" clip-rule="evenodd" d="M37.709 7.17923L35.9696 6.192L36.138 4.1991C36.8175 4.25652 37.4208 4.65616 37.7388 5.25936C38.0568 5.86256 38.0455 6.58621 37.709 7.17923ZM33.676 6.1117C35.0329 6.11284 35.9696 6.192 35.9696 6.192C35.9696 6.192 35.5056 7.00952 34.7398 8.12963C33.4622 9.99821 31.3447 12.7089 29.1404 13.8709C25.6147 15.7294 21.0739 14.0441 21.0739 14.0441C21.0739 14.0441 22.2495 9.34556 25.7752 7.48701C27.9795 6.32501 31.4125 6.1098 33.676 6.1117ZM21.0739 14.0441C19.1337 13.5587 19.1339 13.5581 19.134 13.5575L19.1344 13.5562L19.1351 13.5532L19.137 13.5459L19.1421 13.5262C19.1461 13.5108 19.1514 13.4909 19.1579 13.4667C19.1711 13.4183 19.1894 13.3528 19.2133 13.272C19.261 13.1105 19.3311 12.887 19.4262 12.6168C19.6155 12.079 19.9088 11.3428 20.3295 10.5369C21.1496 8.96615 22.5648 6.91848 24.8425 5.71778C27.0263 4.56664 29.9628 4.23747 32.1079 4.14443C33.2264 4.09591 34.2241 4.10908 34.9424 4.13421C35.3026 4.1468 35.5951 4.1625 35.8004 4.17528C35.9031 4.18167 35.9842 4.18735 36.0413 4.19156L36.1085 4.1967L36.1281 4.19828L36.1364 4.19897L36.138 4.1991C36.1384 4.19913 36.138 4.1991 35.9696 6.192C37.709 7.17923 37.7091 7.17891 37.709 7.17923L37.7082 7.18059L37.704 7.18786L37.6943 7.2049L37.6605 7.2633C37.6318 7.31273 37.5906 7.38284 37.5378 7.47121C37.4324 7.64783 37.28 7.89801 37.0869 8.20228C36.7017 8.80916 36.1487 9.63972 35.4767 10.5351C34.1877 12.2523 32.2567 14.489 30.073 15.6401C27.7953 16.8408 25.3062 16.8512 23.5469 16.6402C22.6442 16.532 21.8711 16.3579 21.3204 16.2102C21.0437 16.136 20.8197 16.0675 20.6596 16.0156C20.5794 15.9896 20.515 15.9677 20.4676 15.9512C20.444 15.943 20.4246 15.9361 20.4096 15.9307L20.3904 15.9237L20.3834 15.9211L20.3792 15.9196C20.3786 15.9194 20.378 15.9192 21.0739 14.0441ZM19.1337 13.5587L21.0739 14.0441L20.378 15.9192C19.4223 15.5645 18.8863 14.5477 19.1337 13.5587Z" fill="#156319"/>
<path d="M28.835 13.3344C31.8326 11.7542 34.7329 6.97929 34.7329 6.97929C27.9165 8.71623 23.4497 12.1537 22.0683 13.6553C22.0683 13.6553 25.8374 14.9146 28.835 13.3344Z" fill="#79C01E"/>
<path d="M15.6371 8.54151C16.9257 9.07348 20.0626 14.0925 20.9351 16.642C21.0079 16.8547 21.5922 16.6323 21.5313 16.4465C21.1761 14.0934 19.749 8.44609 18.1805 6.56395C16.3416 6.6732 15.6415 8.02559 15.6371 8.54151Z" fill="#8C5936"/>
<path fill-rule="evenodd" clip-rule="evenodd" d="M14.7668 10.3423C14.0737 10.0076 13.6305 9.30123 13.6371 8.52457C13.6448 7.61398 14.1317 6.67862 14.788 6.00472C15.5316 5.24131 16.631 4.65245 18.0618 4.56746C18.6959 4.52979 19.3102 4.79558 19.7168 5.28357C20.2924 5.97428 20.7659 6.88743 21.1509 7.77626C21.5491 8.6955 21.91 9.72533 22.2223 10.7405C22.8291 12.7129 23.2916 14.7585 23.4943 16.0541C23.7276 17.1371 23.0249 17.8757 22.8297 18.0556C22.5299 18.3321 22.2007 18.4905 21.9507 18.579C21.7063 18.6656 21.3238 18.7612 20.8761 18.7182C20.4479 18.677 19.4275 18.414 19.0427 17.2896C18.6818 16.2349 17.7765 14.4982 16.7598 12.9168C16.2605 12.1402 15.7696 11.4565 15.351 10.9554C15.1409 10.704 14.9715 10.5257 14.8478 10.4124C14.8112 10.3789 14.7843 10.3563 14.7668 10.3423ZM21.5311 16.4465C21.5307 16.4438 21.5303 16.4411 21.5299 16.4384C21.4601 15.9775 21.3494 15.3912 21.2048 14.7322C20.9442 13.5442 20.5734 12.1199 20.1331 10.7671C19.5681 9.03165 18.8887 7.41388 18.1804 6.56394C17.6442 6.59579 17.2048 6.73334 16.8513 6.92502C16.4756 7.12869 16.1969 7.39347 16.0019 7.65753C15.751 7.99728 15.6388 8.33584 15.637 8.54149C16.2545 8.79641 17.2964 10.0817 18.3102 11.6318C19.0194 12.7162 19.7148 13.9303 20.2416 15.0119C20.5128 15.5689 20.7394 16.0908 20.9 16.5418C20.912 16.5756 20.9237 16.609 20.935 16.642C21.0078 16.8547 21.5921 16.6323 21.5311 16.4465ZM19.5419 16.6695C19.5565 16.7966 19.585 16.9302 19.6308 17.0698C19.596 16.9639 19.5702 16.8552 19.5535 16.745C19.5498 16.7203 19.5459 16.6951 19.5419 16.6695Z" fill="#583A24"/>
<path d="M18.5982 6.78179C18.934 7.24864 18.5465 8.10155 17.7328 8.68682C16.9191 9.27208 15.9872 9.36808 15.6514 8.90122C15.3157 8.43437 15.7031 7.58146 16.5168 6.99619C17.3305 6.41093 18.2624 6.31494 18.5982 6.78179Z" fill="#C27A49"/>
<path d="M34.1741 46.6615C34.1741 47.622 33.3954 48.4006 32.4349 48.4006C31.4744 48.4006 30.6958 47.622 30.6958 46.6615C30.6958 45.701 31.4744 44.9224 32.4349 44.9224C33.3954 44.9224 34.1741 45.701 34.1741 46.6615Z" fill="#83A918"/>
<path d="M39.3913 50.1398C39.3913 51.1003 38.6127 51.8789 37.6522 51.8789C36.6917 51.8789 35.9131 51.1003 35.9131 50.1398C35.9131 49.1793 36.6917 48.4006 37.6522 48.4006C38.6127 48.4006 39.3913 49.1793 39.3913 50.1398Z" fill="#83A918"/>
<path d="M38.5218 44.4875C38.5218 45.2078 37.9378 45.7918 37.2174 45.7918C36.4971 45.7918 35.9131 45.2078 35.9131 44.4875C35.9131 43.7671 36.4971 43.1831 37.2174 43.1831C37.9378 43.1831 38.5218 43.7671 38.5218 44.4875Z" fill="#83A918"/>
<path d="M39.3913 56.2267C39.3913 57.1872 38.6127 57.9658 37.6522 57.9658C36.6917 57.9658 35.9131 57.1872 35.9131 56.2267C35.9131 55.2662 36.6917 54.4875 37.6522 54.4875C38.6127 54.4875 39.3913 55.2662 39.3913 56.2267Z" fill="#83A918"/>
<path d="M34.1741 52.7484C34.1741 53.7089 33.3954 54.4875 32.4349 54.4875C31.4744 54.4875 30.6958 53.7089 30.6958 52.7484C30.6958 51.7879 31.4744 51.0093 32.4349 51.0093C33.3954 51.0093 34.1741 51.7879 34.1741 52.7484Z" fill="#83A918"/>
<path d="M35.9128 61.444C35.9128 62.4045 35.1342 63.1831 34.1737 63.1831C33.2132 63.1831 32.4346 62.4045 32.4346 61.444C32.4346 60.4835 33.2132 59.7048 34.1737 59.7048C35.1342 59.7048 35.9128 60.4835 35.9128 61.444Z" fill="#83A918"/>
<path d="M30.6955 58.8353C30.6955 59.7958 29.9169 60.5745 28.9564 60.5745C27.9959 60.5745 27.2173 59.7958 27.2173 58.8353C27.2173 57.8748 27.9959 57.0962 28.9564 57.0962C29.9169 57.0962 30.6955 57.8748 30.6955 58.8353Z" fill="#83A918"/>
<path d="M31.5652 65.3571C31.5652 66.0775 30.9813 66.6614 30.2609 66.6614C29.5405 66.6614 28.9565 66.0775 28.9565 65.3571C28.9565 64.6367 29.5405 64.0527 30.2609 64.0527C30.9813 64.0527 31.5652 64.6367 31.5652 65.3571Z" fill="#83A918"/>
</svg>
