<svg width="52" height="63" viewBox="0 0 52 63" fill="none" xmlns="http://www.w3.org/2000/svg">
<path d="M18 4.03774C21.2464 8.74717 19.8164 12.6415 18.6957 14C24.3536 12.4604 30.8696 13.3585 33.4203 14C30.5449 9.92453 32.6087 5.28302 34 3.4717C30.7536 4.28679 28.8599 6.83019 28.3188 8C28.2261 5.37358 26.5797 2.90566 25.7681 2C24.4696 4.26415 23.9903 6.79245 23.913 7.77358C22.429 6.23396 19.3527 4.64151 18 4.03774Z" fill="#D72424"/>
<path fill-rule="evenodd" clip-rule="evenodd" d="M17.0155 15.0849C16.5429 14.353 16.5985 13.3993 17.1529 12.7272C17.726 12.0326 19.0741 9.11977 16.3533 5.17286C15.8446 4.43486 15.889 3.4485 16.462 2.75922C17.035 2.06993 17.9967 1.84608 18.8152 2.21143C19.5564 2.54226 20.7324 3.12617 21.927 3.83426C22.155 3.96935 22.3892 4.11225 22.6256 4.262C22.9525 3.22551 23.4094 2.09274 24.0332 1.005C24.3526 0.448039 24.92 0.0783018 25.5586 0.0110258C26.1971 -0.0562501 26.8291 0.187116 27.2576 0.66527C27.7866 1.25564 28.502 2.24991 29.105 3.46655C29.1488 3.55496 29.1924 3.64519 29.2355 3.73716C30.3436 2.80607 31.7664 1.97045 33.513 1.53192C34.3385 1.32464 35.2048 1.6626 35.6719 2.37417C36.1391 3.08573 36.1046 4.01499 35.5861 4.69002C35.062 5.37237 34.3487 6.69097 34.0805 8.23015C33.8202 9.72347 33.9873 11.3344 35.0545 12.847C35.5367 13.5305 35.5427 14.4419 35.0694 15.1316C34.5962 15.8213 33.7437 16.1436 32.9325 15.9396C30.5622 15.3435 24.4232 14.5142 19.2208 15.9298C18.3801 16.1586 17.4881 15.8168 17.0155 15.0849ZM29.9818 5.75877C29.1278 6.59452 28.5735 7.44942 28.3188 8.00002C28.2852 7.04854 28.0477 6.11787 27.7199 5.27473C27.5229 4.76808 27.2933 4.29303 27.0556 3.86408C26.5972 3.03645 26.109 2.38042 25.7681 2.00002C25.3827 2.67202 25.0695 3.3673 24.8175 4.03848C24.6295 4.53935 24.4755 5.0268 24.3512 5.48115C24.0808 6.46934 23.9503 7.30098 23.913 7.7736C23.4376 7.28033 22.7987 6.78165 22.1054 6.31178C21.8012 6.10566 21.4866 5.90508 21.1708 5.71295C19.9593 4.97601 18.7292 4.36323 18 4.03775C18.7299 5.09663 19.2234 6.1143 19.5372 7.07121C20.1272 8.87045 20.0817 10.4549 19.7775 11.6944C19.524 12.7277 19.0906 13.5213 18.6957 14C19.5494 13.7677 20.4227 13.5909 21.299 13.4603C24.7798 12.9416 28.3074 13.1528 30.8431 13.5134C31.8993 13.6637 32.7834 13.8398 33.4203 14C32.893 13.2527 32.5319 12.4864 32.3022 11.7219C31.7174 9.77595 31.9847 7.84235 32.5331 6.26653C32.9442 5.08548 33.5133 4.1054 34 3.47171C32.7641 3.78202 31.7243 4.3428 30.8805 4.98292C30.551 5.23284 30.2515 5.49485 29.9818 5.75877Z" fill="#732533"/>
<path fill-rule="evenodd" clip-rule="evenodd" d="M18.6957 14C19.8164 12.6415 21.2464 8.74717 18 4.03774C18.6758 4.3394 19.782 4.88788 20.9048 5.55327C22.7009 9.10317 21.9383 12.0314 21.0478 13.499C20.256 13.6252 19.4678 13.7899 18.6957 14ZM26.7234 13.1644C29.5925 13.2462 32.0656 13.6593 33.4203 14C33.3161 13.8524 33.2184 13.704 33.127 13.555C31.3864 13.2923 29.1291 13.0935 26.7234 13.1644ZM33.1868 4.76028C33.457 4.24682 33.7402 3.80992 34 3.4717C32.2418 3.91313 30.8804 4.86148 29.9158 5.82402C30.1396 6.51474 30.2924 7.25093 30.3188 8C30.6782 7.22307 31.6342 5.84027 33.1868 4.76028ZM26.9549 3.68564C26.5267 2.94215 26.0841 2.35264 25.7681 2C24.9042 3.50628 24.403 5.12948 24.1414 6.33625C24.8208 6.79893 25.4458 7.28888 25.913 7.77358C25.9714 7.03291 26.2588 5.4105 26.9549 3.68564Z" fill="#FE3434"/>
<path d="M50 37C50 50.2548 39.2548 61 26 61C12.7452 61 2 50.2548 2 37C2 23.7452 12.7452 13 26 13C39.2548 13 50 23.7452 50 37Z" fill="#FE3434"/>
<path fill-rule="evenodd" clip-rule="evenodd" d="M52 37C52 51.3594 40.3594 63 26 63C11.6406 63 0 51.3594 0 37C0 22.6406 11.6406 11 26 11C40.3594 11 52 22.6406 52 37ZM26 61C39.2548 61 50 50.2548 50 37C50 23.7452 39.2548 13 26 13C12.7452 13 2 23.7452 2 37C2 50.2548 12.7452 61 26 61Z" fill="#732533"/>
<path fill-rule="evenodd" clip-rule="evenodd" d="M26 61C39.2548 61 50 50.2548 50 37C50 23.7452 39.2548 13 26 13C20.314 13 15.0898 14.9773 10.9776 18.2819C13.9648 16.2125 17.5908 15 21.5 15C31.7173 15 40 23.2827 40 33.5C40 43.7173 31.7173 52 21.5 52C11.2827 52 3 43.7173 3 33.5C3 31.2218 3.4118 29.0398 4.16502 27.0243C2.77483 30.0623 2 33.4406 2 37C2 50.2548 12.7452 61 26 61Z" fill="#D72424"/>
<path d="M42.8978 33.0204C42.8978 34.0833 42.0362 34.9449 40.9733 34.9449C39.9105 34.9449 39.0488 34.0833 39.0488 33.0204C39.0488 31.9576 39.9105 31.0959 40.9733 31.0959C42.0362 31.0959 42.8978 31.9576 42.8978 33.0204Z" fill="#B42222"/>
<path d="M47.4999 35.6979C47.4999 36.7608 46.6382 37.6224 45.5754 37.6224C44.5125 37.6224 43.6509 36.7608 43.6509 35.6979C43.6509 34.6351 44.5125 33.7734 45.5754 33.7734C46.6382 33.7734 47.4999 34.6351 47.4999 35.6979Z" fill="#B42222"/>
<path d="M46.5376 29.4434C46.5376 30.2405 45.8914 30.8867 45.0942 30.8867C44.2971 30.8867 43.6509 30.2405 43.6509 29.4434C43.6509 28.6462 44.2971 28 45.0942 28C45.8914 28 46.5376 28.6462 46.5376 29.4434Z" fill="#B42222"/>
<path d="M46.3285 42.4338C46.3285 43.4966 45.4668 44.3583 44.404 44.3583C43.3411 44.3583 42.4795 43.4966 42.4795 42.4338C42.4795 41.3709 43.3411 40.5093 44.404 40.5093C45.4668 40.5093 46.3285 41.3709 46.3285 42.4338Z" fill="#B42222"/>
<path d="M41.7264 39.756C41.7264 40.8189 40.8648 41.6805 39.8019 41.6805C38.7391 41.6805 37.8774 40.8189 37.8774 39.756C37.8774 38.6932 38.7391 37.8315 39.8019 37.8315C40.8648 37.8315 41.7264 38.6932 41.7264 39.756Z" fill="#B42222"/>
<path d="M44 48.5C44 49.8807 42.8807 51 41.5 51C40.1193 51 39 49.8807 39 48.5C39 47.1193 40.1193 46 41.5 46C42.8807 46 44 47.1193 44 48.5Z" fill="#B42222"/>
<path d="M37 45.5C37 46.3284 36.3284 47 35.5 47C34.6716 47 34 46.3284 34 45.5C34 44.6716 34.6716 44 35.5 44C36.3284 44 37 44.6716 37 45.5Z" fill="#B42222"/>
<path d="M31.6856 57.1143C31.6856 57.7613 31.1612 58.2857 30.5142 58.2857C29.8672 58.2857 29.3428 57.7613 29.3428 57.1143C29.3428 56.4673 29.8672 55.9429 30.5142 55.9429C31.1612 55.9429 31.6856 56.4673 31.6856 57.1143Z" fill="#B42222"/>
<path d="M39 54C39 55.1046 38.1046 56 37 56C35.8954 56 35 55.1046 35 54C35 52.8954 35.8954 52 37 52C38.1046 52 39 52.8954 39 54Z" fill="#B42222"/>
<path d="M35 50C35 50.5523 34.5523 51 34 51C33.4477 51 33 50.5523 33 50C33 49.4477 33.4477 49 34 49C34.5523 49 35 49.4477 35 50Z" fill="#B42222"/>
<path d="M22.4545 21.6632C24.1228 24.5263 21.9936 28.8759 17.6989 31.3783C13.4042 33.8808 8.57028 33.5883 6.90201 30.7252C5.23375 27.862 7.36289 23.5124 11.6576 21.01C15.9523 18.5076 20.7862 18.8 22.4545 21.6632Z" fill="#FF7878"/>
<path fill-rule="evenodd" clip-rule="evenodd" d="M14.0831 24.1546C14.6728 25.0886 14.3938 26.3238 13.4599 26.9136C12.7473 27.3635 12.1971 27.908 11.7815 28.5491C11.1807 29.476 9.94222 29.7402 9.01536 29.1394C8.0885 28.5386 7.8242 27.3001 8.42504 26.3733C9.17046 25.2234 10.1461 24.2754 11.3241 23.5315C12.2581 22.9417 13.4933 23.2207 14.0831 24.1546Z" fill="white"/>
</svg>
